<svg width="100" height="78" viewBox="0 0 100 78" fill="none" xmlns="http://www.w3.org/2000/svg">
<path d="M89.9653 41.0081C89.6528 48.6212 86.9444 56.7534 81.0417 63.8475C80.7639 64.1935 80.5555 64.2973 80.2083 64.2973C79.8611 64.2973 79.618 64.1589 79.3055 63.9513C78.75 63.536 77.4653 62.4979 77.0486 62.1518C76.6667 61.8404 76.4583 61.5635 76.4583 61.1829C76.4583 60.8368 76.6319 60.4908 76.875 60.1447C80.7986 54.5041 82.9167 49.7286 83.7153 44.5724C85.4167 43.7765 88.2292 42.1847 89.9653 41.0081ZM72.8125 49.3479C70.9028 50.0746 68.8889 50.8013 66.8055 51.528V72.8794C66.8055 73.6407 67.1528 74.0214 67.8125 74.0214C68.0556 74.0214 68.2986 73.9868 68.6458 73.8484C69.3403 73.5369 71.25 72.5334 71.9792 72.0143C72.7083 71.4952 72.8125 71.0799 72.8125 70.0418V49.3479ZM54.1319 55.3346V76.5476C54.1319 77.2743 54.4792 77.6895 55.2778 77.6895C56.1111 77.6895 57.8125 77.3089 58.8542 76.9628C59.7222 76.686 60 76.2707 60 75.4402V53.639C58.0903 54.2272 56.1458 54.7809 54.1319 55.3346ZM21.2153 60.8368V64.7472C21.2153 66.1314 21.4931 66.6851 22.3264 67.3426C23.1597 68.0347 24.1667 68.8306 25.2083 69.7303C25.5903 70.0418 25.9375 70.1802 26.25 70.1802C26.7361 70.1802 27.0486 69.8688 27.0486 69.1767V60.4216C25.1042 60.5946 23.125 60.733 21.2153 60.8368ZM42.1528 58.1722V70.1802C42.1528 71.0453 41.8056 71.3568 41.1111 71.3568C40.3819 71.3568 39.0972 71.0799 38.3681 70.6647C37.5 70.1456 37.2917 69.6611 37.2917 68.5538V59.0374C35.3125 59.3834 33.3333 59.6603 31.3889 59.9371V70.4917C31.3889 72.7064 32.0486 73.883 34.1667 75.0595C36.9097 76.6168 42.6736 78.001 45.5208 78.001C47.2569 78.001 48.125 77.032 48.125 75.544V56.788C46.1111 57.3071 44.1319 57.757 42.1528 58.1722ZM100 25.7818C100 35.2636 77.0486 47.5831 46.5972 54.7117C37.1181 56.9264 26.2847 58.6913 17.6736 58.6913C5.13889 58.6913 0 54.2618 0 49.2441C0 46.1988 1.84028 43.3266 5.72917 40.7312C5.9375 40.5928 6.14583 40.489 6.31944 40.489C6.52778 40.489 6.66667 40.6274 6.66667 40.835C6.66667 41.0081 6.5625 41.1465 6.35417 41.3195C3.29861 43.7073 1.77083 46.1988 1.77083 48.7942C1.77083 52.324 5.65972 56.1651 17.4306 56.1651C18.5764 56.1651 19.8264 56.1305 21.2153 56.0613V41.5272H15.8681C16.0417 44.1225 16.4931 46.3373 17.3958 49.5209C17.5 49.867 17.5694 50.1784 17.5694 50.3515C17.5694 50.8359 17.3264 51.1128 16.5972 51.3896C15.7292 51.7011 14.9306 51.9779 14.1667 52.2547C13.8542 52.3586 13.5764 52.4278 13.3333 52.4278C12.7778 52.4278 12.4653 52.1163 12.2222 51.4934C10.5556 47.5484 9.93056 42.4961 9.93056 38.4473C9.93056 26.82 16.1806 15.3657 25.0347 8.68687C25.4514 8.34082 25.8681 8.237 26.1806 8.237C26.7708 8.237 27.1181 8.68687 27.1181 9.17134V55.6115C28.5069 55.473 29.9653 55.2654 31.4583 55.0578V46.6141C31.4583 45.5414 31.875 45.1607 33.0208 45.1607H35.7986C36.9444 45.1607 37.3264 45.5414 37.3264 46.6141V54.1234C38.9236 53.8466 40.5208 53.5351 42.1528 53.1891V45.2299C42.1528 43.7419 41.7708 43.1536 40.625 42.4961C39.4792 41.804 37.1875 40.4544 35.5903 39.5201C32.7431 37.8244 31.4236 36.2672 31.4236 32.6682V8.06398C31.4236 6.26451 31.8056 5.08793 33.4375 4.04978C36.6319 2.00808 42.3264 0.104792 45.0694 0.104792C46.7708 0.104792 47.5 0.90071 47.5 2.25031V30.0036C47.5 31.0764 47.1528 31.4571 45.9722 31.4571H43.125C41.9792 31.4571 41.5972 31.0764 41.5972 30.0036V8.09858C41.5972 7.23345 41.3889 6.92201 40.7292 6.92201C40.2083 6.92201 39.2014 7.26806 38.4028 7.75253C37.5694 8.27161 37.3611 8.82529 37.3611 9.86344V31.2494C37.3611 32.772 37.6042 33.2219 38.8542 33.9832C40.3472 34.9176 42.5347 36.198 43.8889 36.9593C46.875 38.6895 48.0556 40.4198 48.0556 43.8111V51.7703C50.0694 51.2858 52.0833 50.7667 54.0625 50.213V6.02227C53.3681 5.91846 52.0139 5.78004 50.625 5.64162C49.5139 5.5378 49.3403 5.08793 49.3403 4.29201V1.35058C49.3403 0.485449 49.7917 0.000976562 50.7639 0.000976562C54.375 0.000976562 60.8333 1.28137 63.5417 2.35413C64.618 2.76939 64.8264 3.18465 64.8264 3.98057V7.33727C64.8264 8.06398 64.4444 8.37542 63.9236 8.37542C63.6805 8.37542 63.4375 8.30621 62.8819 8.13319C61.6667 7.75253 60.625 7.40648 59.9305 7.23345V48.552C62.2569 47.8253 64.5139 47.064 66.7361 46.3027V4.77649C66.7361 4.15359 67.0833 3.73833 67.6389 3.73833C68.2639 3.73833 68.5764 4.2228 69.0278 5.22635C70.7292 9.17134 74.8264 18.5839 78.0903 26.0933C79.2708 22.8404 80.6944 18.8608 81.0069 17.9957C81.2153 17.3728 81.5278 17.0613 82.0139 17.0613C82.3958 17.0613 82.6736 17.2343 83.125 17.788C86.8403 22.875 89.1319 28.6194 89.7569 35.5059C94.9653 32.0799 98.125 28.654 98.125 25.678C98.125 22.7366 95.3125 20.245 88.5417 19.8989C88.2292 19.8989 88.0555 19.7259 88.0555 19.4837C88.0555 19.276 88.2292 19.103 88.5764 19.103C96.3194 19.103 100 22.4251 100 25.7818ZM21.2153 35.6789V20.7295C18.1944 24.7783 16.2847 30.3843 15.8333 35.6789H21.2153ZM72.8125 43.9841C76.9444 42.3231 80.7639 40.5928 84.1319 38.7933C84.0972 34.6061 83.5069 31.6647 82.3264 29.2769C81.1111 32.1838 79.375 36.371 78.8542 37.5822C78.6805 38.032 78.4028 38.3089 78.0556 38.3089C77.7083 38.3089 77.5 38.1012 77.2569 37.6168C76.875 36.8901 74.5486 32.0799 72.8125 28.4464V43.9841Z" fill="white"/>
</svg>
