<svg width="222" height="150" viewBox="0 0 222 150" fill="none" xmlns="http://www.w3.org/2000/svg">
<path d="M218.893 70.3238L178.159 9.01573C176.469 6.47313 174.18 4.38835 171.495 2.94643C168.81 1.50451 165.811 0.750048 162.766 0.75H59.2343C56.1887 0.75001 53.1903 1.50446 50.505 2.94639C47.8198 4.38831 45.5309 6.47311 43.8415 9.01573L3.10723 70.3238C1.08112 73.3729 -4.46052e-05 76.9555 1.38022e-09 80.6202L1.38022e-09 130.688C1.38022e-09 140.939 8.2826 149.25 18.5 149.25H203.5C213.717 149.25 222 140.939 222 130.688V80.6202C222 76.9555 220.919 73.3729 218.893 70.3238ZM62.5346 25.5H159.466L192.355 75H144.917L132.583 99.75H89.4167L77.0833 75H29.6455L62.5346 25.5Z" fill="#BDC0C4"/>
</svg>
